<mxfile host="app.diagrams.net" modified="2023-12-22T06:34:21.466Z" agent="Mozilla/5.0 (Windows NT 10.0; Win64; x64) AppleWebKit/537.36 (KHTML, like Gecko) Chrome/120.0.0.0 Safari/537.36 Edg/120.0.0.0" etag="gSsvZauZYDdya5szW3fp" version="22.1.11" type="github">
  <diagram name="第 1 页" id="IcleU93heGLQJP-_B2Z1">
    <mxGraphModel dx="2449" dy="2163" grid="1" gridSize="10" guides="1" tooltips="1" connect="1" arrows="1" fold="1" page="1" pageScale="1" pageWidth="827" pageHeight="1169" math="0" shadow="0">
      <root>
        <mxCell id="0" />
        <mxCell id="1" parent="0" />
        <mxCell id="pXmirgJ1pPXofqHUb-Qx-147" value="" style="rounded=0;whiteSpace=wrap;html=1;" vertex="1" parent="1">
          <mxGeometry x="-810" y="-1169" width="880" height="659" as="geometry" />
        </mxCell>
        <mxCell id="pXmirgJ1pPXofqHUb-Qx-148" value="" style="rounded=0;whiteSpace=wrap;html=1;fillColor=#fad9d5;strokeColor=#ae4132;labelBackgroundColor=#FF9999;" vertex="1" parent="1">
          <mxGeometry x="-543" y="-1119" width="570" height="150" as="geometry" />
        </mxCell>
        <mxCell id="pXmirgJ1pPXofqHUb-Qx-149" value="店长罗盘" style="text;html=1;align=center;verticalAlign=middle;resizable=0;points=[];autosize=1;strokeColor=none;fillColor=none;fontStyle=1" vertex="1" parent="1">
          <mxGeometry x="-543" y="-1029" width="70" height="30" as="geometry" />
        </mxCell>
        <mxCell id="pXmirgJ1pPXofqHUb-Qx-150" value="" style="rounded=0;whiteSpace=wrap;html=1;fillColor=#b1ddf0;strokeColor=#10739e;" vertex="1" parent="1">
          <mxGeometry x="-543" y="-954" width="260" height="415" as="geometry" />
        </mxCell>
        <mxCell id="pXmirgJ1pPXofqHUb-Qx-151" value="" style="rounded=0;whiteSpace=wrap;html=1;fontColor=#f4f0f0;" vertex="1" parent="1">
          <mxGeometry x="-463" y="-1109" width="180" height="130" as="geometry" />
        </mxCell>
        <mxCell id="pXmirgJ1pPXofqHUb-Qx-152" value="门店业绩" style="text;html=1;align=center;verticalAlign=middle;resizable=0;points=[];autosize=1;strokeColor=none;fillColor=none;" vertex="1" parent="1">
          <mxGeometry x="-468" y="-1059" width="70" height="30" as="geometry" />
        </mxCell>
        <mxCell id="pXmirgJ1pPXofqHUb-Qx-153" value="销售指标&lt;br&gt;&lt;br&gt;" style="rounded=1;whiteSpace=wrap;html=1;fillColor=#fad9d5;strokeColor=#ae4132;" vertex="1" parent="1">
          <mxGeometry x="-404.5" y="-1103" width="112.5" height="54" as="geometry" />
        </mxCell>
        <mxCell id="pXmirgJ1pPXofqHUb-Qx-154" value="销售趋势&lt;br&gt;&lt;br&gt;" style="rounded=1;whiteSpace=wrap;html=1;fillColor=#fad9d5;strokeColor=#ae4132;" vertex="1" parent="1">
          <mxGeometry x="-404.5" y="-1039" width="112.5" height="54" as="geometry" />
        </mxCell>
        <mxCell id="pXmirgJ1pPXofqHUb-Qx-155" value="门店管理" style="text;html=1;align=center;verticalAlign=middle;resizable=0;points=[];autosize=1;strokeColor=none;fillColor=none;fontStyle=1" vertex="1" parent="1">
          <mxGeometry x="-543" y="-779" width="70" height="30" as="geometry" />
        </mxCell>
        <mxCell id="pXmirgJ1pPXofqHUb-Qx-156" value="" style="rounded=0;whiteSpace=wrap;html=1;fillColor=#b0e3e6;strokeColor=#0e8088;" vertex="1" parent="1">
          <mxGeometry x="-273" y="-954" width="300" height="415" as="geometry" />
        </mxCell>
        <mxCell id="pXmirgJ1pPXofqHUb-Qx-157" value="经营工具" style="text;html=1;align=center;verticalAlign=middle;resizable=0;points=[];autosize=1;strokeColor=none;fillColor=none;fontStyle=1" vertex="1" parent="1">
          <mxGeometry x="-273" y="-819" width="70" height="30" as="geometry" />
        </mxCell>
        <mxCell id="pXmirgJ1pPXofqHUb-Qx-158" value="" style="rounded=0;whiteSpace=wrap;html=1;" vertex="1" parent="1">
          <mxGeometry x="-473" y="-944" width="170" height="70" as="geometry" />
        </mxCell>
        <mxCell id="pXmirgJ1pPXofqHUb-Qx-159" value="陈列指引" style="text;html=1;align=center;verticalAlign=middle;resizable=0;points=[];autosize=1;strokeColor=none;fillColor=none;" vertex="1" parent="1">
          <mxGeometry x="-423" y="-944" width="70" height="30" as="geometry" />
        </mxCell>
        <mxCell id="pXmirgJ1pPXofqHUb-Qx-160" value="陈列拍照" style="rounded=1;whiteSpace=wrap;html=1;fillColor=#b1ddf0;strokeColor=#10739e;" vertex="1" parent="1">
          <mxGeometry x="-458" y="-914" width="65" height="30" as="geometry" />
        </mxCell>
        <mxCell id="pXmirgJ1pPXofqHUb-Qx-161" value="陈列考核" style="rounded=1;whiteSpace=wrap;html=1;fillColor=#b1ddf0;strokeColor=#10739e;" vertex="1" parent="1">
          <mxGeometry x="-380.5" y="-914" width="65" height="30" as="geometry" />
        </mxCell>
        <mxCell id="pXmirgJ1pPXofqHUb-Qx-162" value="" style="rounded=0;whiteSpace=wrap;html=1;" vertex="1" parent="1">
          <mxGeometry x="-473" y="-859" width="170" height="70" as="geometry" />
        </mxCell>
        <mxCell id="pXmirgJ1pPXofqHUb-Qx-163" value="巡店工单" style="text;html=1;align=center;verticalAlign=middle;resizable=0;points=[];autosize=1;strokeColor=none;fillColor=none;" vertex="1" parent="1">
          <mxGeometry x="-423" y="-859" width="70" height="30" as="geometry" />
        </mxCell>
        <mxCell id="pXmirgJ1pPXofqHUb-Qx-164" value="巡店报告" style="rounded=1;whiteSpace=wrap;html=1;fillColor=#b1ddf0;strokeColor=#10739e;" vertex="1" parent="1">
          <mxGeometry x="-455.5" y="-829" width="65" height="30" as="geometry" />
        </mxCell>
        <mxCell id="pXmirgJ1pPXofqHUb-Qx-165" value="整改跟踪" style="rounded=1;whiteSpace=wrap;html=1;fillColor=#b1ddf0;strokeColor=#10739e;" vertex="1" parent="1">
          <mxGeometry x="-378" y="-829" width="65" height="30" as="geometry" />
        </mxCell>
        <mxCell id="pXmirgJ1pPXofqHUb-Qx-166" value="" style="rounded=0;whiteSpace=wrap;html=1;" vertex="1" parent="1">
          <mxGeometry x="-473" y="-779" width="170" height="70" as="geometry" />
        </mxCell>
        <mxCell id="pXmirgJ1pPXofqHUb-Qx-167" value="员工管理" style="text;html=1;align=center;verticalAlign=middle;resizable=0;points=[];autosize=1;strokeColor=none;fillColor=none;" vertex="1" parent="1">
          <mxGeometry x="-423" y="-779" width="70" height="30" as="geometry" />
        </mxCell>
        <mxCell id="pXmirgJ1pPXofqHUb-Qx-168" value="绩效提成" style="rounded=1;whiteSpace=wrap;html=1;fillColor=#b1ddf0;strokeColor=#10739e;" vertex="1" parent="1">
          <mxGeometry x="-455.5" y="-749" width="65" height="30" as="geometry" />
        </mxCell>
        <mxCell id="pXmirgJ1pPXofqHUb-Qx-169" value="员工薪资" style="rounded=1;whiteSpace=wrap;html=1;fillColor=#b1ddf0;strokeColor=#10739e;" vertex="1" parent="1">
          <mxGeometry x="-378" y="-749" width="65" height="30" as="geometry" />
        </mxCell>
        <mxCell id="pXmirgJ1pPXofqHUb-Qx-170" value="" style="rounded=0;whiteSpace=wrap;html=1;" vertex="1" parent="1">
          <mxGeometry x="-473" y="-699" width="170" height="70" as="geometry" />
        </mxCell>
        <mxCell id="pXmirgJ1pPXofqHUb-Qx-171" value="财务费用" style="text;html=1;align=center;verticalAlign=middle;resizable=0;points=[];autosize=1;strokeColor=none;fillColor=none;" vertex="1" parent="1">
          <mxGeometry x="-423" y="-699" width="70" height="30" as="geometry" />
        </mxCell>
        <mxCell id="pXmirgJ1pPXofqHUb-Qx-172" value="门店日报" style="rounded=1;whiteSpace=wrap;html=1;fillColor=#b1ddf0;strokeColor=#10739e;" vertex="1" parent="1">
          <mxGeometry x="-455.5" y="-669" width="65" height="30" as="geometry" />
        </mxCell>
        <mxCell id="pXmirgJ1pPXofqHUb-Qx-173" value="费用管理" style="rounded=1;whiteSpace=wrap;html=1;fillColor=#b1ddf0;strokeColor=#10739e;" vertex="1" parent="1">
          <mxGeometry x="-378" y="-669" width="65" height="30" as="geometry" />
        </mxCell>
        <mxCell id="pXmirgJ1pPXofqHUb-Qx-174" value="" style="rounded=0;whiteSpace=wrap;html=1;" vertex="1" parent="1">
          <mxGeometry x="-203" y="-944" width="220" height="125" as="geometry" />
        </mxCell>
        <mxCell id="pXmirgJ1pPXofqHUb-Qx-175" value="货品管理" style="text;html=1;align=center;verticalAlign=middle;resizable=0;points=[];autosize=1;strokeColor=none;fillColor=none;fontStyle=1" vertex="1" parent="1">
          <mxGeometry x="-127.5" y="-944" width="70" height="30" as="geometry" />
        </mxCell>
        <mxCell id="pXmirgJ1pPXofqHUb-Qx-176" value="" style="rounded=0;whiteSpace=wrap;html=1;" vertex="1" parent="1">
          <mxGeometry x="-203" y="-809" width="220" height="70" as="geometry" />
        </mxCell>
        <mxCell id="pXmirgJ1pPXofqHUb-Qx-177" value="库存管理" style="text;html=1;align=center;verticalAlign=middle;resizable=0;points=[];autosize=1;strokeColor=none;fillColor=none;fontStyle=1" vertex="1" parent="1">
          <mxGeometry x="-127.5" y="-809" width="70" height="30" as="geometry" />
        </mxCell>
        <mxCell id="pXmirgJ1pPXofqHUb-Qx-178" value="库存查询" style="rounded=1;whiteSpace=wrap;html=1;fillColor=#b0e3e6;strokeColor=#0e8088;" vertex="1" parent="1">
          <mxGeometry x="-194" y="-779" width="91" height="30" as="geometry" />
        </mxCell>
        <mxCell id="pXmirgJ1pPXofqHUb-Qx-179" value="库存盘点" style="rounded=1;whiteSpace=wrap;html=1;fillColor=#b0e3e6;strokeColor=#0e8088;" vertex="1" parent="1">
          <mxGeometry x="-73" y="-779" width="80" height="30" as="geometry" />
        </mxCell>
        <mxCell id="pXmirgJ1pPXofqHUb-Qx-180" value="唯一码管理" style="rounded=1;whiteSpace=wrap;html=1;fillColor=#b0e3e6;strokeColor=#0e8088;" vertex="1" parent="1">
          <mxGeometry x="-53" y="-859" width="65" height="30" as="geometry" />
        </mxCell>
        <mxCell id="pXmirgJ1pPXofqHUb-Qx-181" value="" style="rounded=0;whiteSpace=wrap;html=1;" vertex="1" parent="1">
          <mxGeometry x="-473" y="-619" width="170" height="70" as="geometry" />
        </mxCell>
        <mxCell id="pXmirgJ1pPXofqHUb-Qx-182" value="需求反馈" style="text;html=1;align=center;verticalAlign=middle;resizable=0;points=[];autosize=1;strokeColor=none;fillColor=none;" vertex="1" parent="1">
          <mxGeometry x="-423" y="-619" width="70" height="30" as="geometry" />
        </mxCell>
        <mxCell id="pXmirgJ1pPXofqHUb-Qx-183" value="货品反馈" style="rounded=1;whiteSpace=wrap;html=1;fillColor=#b1ddf0;strokeColor=#10739e;" vertex="1" parent="1">
          <mxGeometry x="-455.5" y="-589" width="65" height="30" as="geometry" />
        </mxCell>
        <mxCell id="pXmirgJ1pPXofqHUb-Qx-184" value="运营反馈" style="rounded=1;whiteSpace=wrap;html=1;fillColor=#b1ddf0;strokeColor=#10739e;" vertex="1" parent="1">
          <mxGeometry x="-378" y="-589" width="65" height="30" as="geometry" />
        </mxCell>
        <mxCell id="pXmirgJ1pPXofqHUb-Qx-185" value="到货验收" style="rounded=1;whiteSpace=wrap;html=1;fillColor=#b0e3e6;strokeColor=#0e8088;" vertex="1" parent="1">
          <mxGeometry x="-194" y="-908" width="91" height="30" as="geometry" />
        </mxCell>
        <mxCell id="pXmirgJ1pPXofqHUb-Qx-186" value="货品促销" style="rounded=1;whiteSpace=wrap;html=1;fillColor=#b0e3e6;strokeColor=#0e8088;" vertex="1" parent="1">
          <mxGeometry x="-196.5" y="-859" width="65" height="30" as="geometry" />
        </mxCell>
        <mxCell id="pXmirgJ1pPXofqHUb-Qx-187" value="货品调拨" style="rounded=1;whiteSpace=wrap;html=1;fillColor=#b0e3e6;strokeColor=#0e8088;" vertex="1" parent="1">
          <mxGeometry x="-125" y="-859" width="65" height="30" as="geometry" />
        </mxCell>
        <mxCell id="pXmirgJ1pPXofqHUb-Qx-188" value="货品出样" style="rounded=1;whiteSpace=wrap;html=1;fillColor=#b0e3e6;strokeColor=#0e8088;" vertex="1" parent="1">
          <mxGeometry x="-73" y="-908" width="85" height="30" as="geometry" />
        </mxCell>
        <mxCell id="pXmirgJ1pPXofqHUb-Qx-189" value="" style="rounded=0;whiteSpace=wrap;html=1;" vertex="1" parent="1">
          <mxGeometry x="-203" y="-729" width="220" height="80" as="geometry" />
        </mxCell>
        <mxCell id="pXmirgJ1pPXofqHUb-Qx-190" value="会员管理" style="text;html=1;align=center;verticalAlign=middle;resizable=0;points=[];autosize=1;strokeColor=none;fillColor=none;fontStyle=1" vertex="1" parent="1">
          <mxGeometry x="-128" y="-729" width="70" height="30" as="geometry" />
        </mxCell>
        <mxCell id="pXmirgJ1pPXofqHUb-Qx-191" value="会员信息" style="rounded=1;whiteSpace=wrap;html=1;fillColor=#b0e3e6;strokeColor=#0e8088;" vertex="1" parent="1">
          <mxGeometry x="-190.5" y="-699" width="90" height="40" as="geometry" />
        </mxCell>
        <mxCell id="pXmirgJ1pPXofqHUb-Qx-192" value="会员分析" style="rounded=1;whiteSpace=wrap;html=1;fillColor=#b0e3e6;strokeColor=#0e8088;" vertex="1" parent="1">
          <mxGeometry x="-85.5" y="-699" width="90" height="40" as="geometry" />
        </mxCell>
        <mxCell id="pXmirgJ1pPXofqHUb-Qx-193" value="" style="rounded=0;whiteSpace=wrap;html=1;" vertex="1" parent="1">
          <mxGeometry x="-203" y="-639" width="220" height="80" as="geometry" />
        </mxCell>
        <mxCell id="pXmirgJ1pPXofqHUb-Qx-194" value="营销管理" style="text;html=1;align=center;verticalAlign=middle;resizable=0;points=[];autosize=1;strokeColor=none;fillColor=none;fontStyle=1" vertex="1" parent="1">
          <mxGeometry x="-128" y="-639" width="70" height="30" as="geometry" />
        </mxCell>
        <mxCell id="pXmirgJ1pPXofqHUb-Qx-195" value="积分兑换" style="rounded=1;whiteSpace=wrap;html=1;fillColor=#b0e3e6;strokeColor=#0e8088;" vertex="1" parent="1">
          <mxGeometry x="-183" y="-609" width="90" height="40" as="geometry" />
        </mxCell>
        <mxCell id="pXmirgJ1pPXofqHUb-Qx-196" value="营销工具" style="rounded=1;whiteSpace=wrap;html=1;fillColor=#b0e3e6;strokeColor=#0e8088;" vertex="1" parent="1">
          <mxGeometry x="-83" y="-609" width="90" height="40" as="geometry" />
        </mxCell>
        <mxCell id="pXmirgJ1pPXofqHUb-Qx-197" value="" style="rounded=0;whiteSpace=wrap;html=1;" vertex="1" parent="1">
          <mxGeometry x="-780" y="-1119" width="170" height="580" as="geometry" />
        </mxCell>
        <mxCell id="pXmirgJ1pPXofqHUb-Qx-198" value="基础设施" style="text;html=1;align=center;verticalAlign=middle;resizable=0;points=[];autosize=1;strokeColor=none;fillColor=none;fontStyle=1" vertex="1" parent="1">
          <mxGeometry x="-725" y="-1109" width="70" height="30" as="geometry" />
        </mxCell>
        <mxCell id="pXmirgJ1pPXofqHUb-Qx-199" value="" style="rounded=0;whiteSpace=wrap;html=1;fillColor=#ffe6cc;strokeColor=#d79b00;" vertex="1" parent="1">
          <mxGeometry x="-765" y="-1064" width="140" height="190" as="geometry" />
        </mxCell>
        <mxCell id="pXmirgJ1pPXofqHUb-Qx-200" value="云集基础" style="text;html=1;align=center;verticalAlign=middle;resizable=0;points=[];autosize=1;strokeColor=none;fillColor=none;" vertex="1" parent="1">
          <mxGeometry x="-725" y="-1064" width="70" height="30" as="geometry" />
        </mxCell>
        <mxCell id="pXmirgJ1pPXofqHUb-Qx-201" value="门店信息" style="rounded=1;whiteSpace=wrap;html=1;" vertex="1" parent="1">
          <mxGeometry x="-725" y="-1034" width="65" height="30" as="geometry" />
        </mxCell>
        <mxCell id="pXmirgJ1pPXofqHUb-Qx-202" value="员工信息" style="rounded=1;whiteSpace=wrap;html=1;" vertex="1" parent="1">
          <mxGeometry x="-725" y="-979" width="70" height="30" as="geometry" />
        </mxCell>
        <mxCell id="pXmirgJ1pPXofqHUb-Qx-203" value="角色权限" style="rounded=1;whiteSpace=wrap;html=1;" vertex="1" parent="1">
          <mxGeometry x="-727.5" y="-921.5" width="70" height="30" as="geometry" />
        </mxCell>
        <mxCell id="pXmirgJ1pPXofqHUb-Qx-204" value="" style="rounded=0;whiteSpace=wrap;html=1;fillColor=#d5e8d4;strokeColor=#82b366;" vertex="1" parent="1">
          <mxGeometry x="-765" y="-853" width="140" height="165" as="geometry" />
        </mxCell>
        <mxCell id="pXmirgJ1pPXofqHUb-Qx-205" value="云集应用" style="text;html=1;align=center;verticalAlign=middle;resizable=0;points=[];autosize=1;strokeColor=none;fillColor=none;" vertex="1" parent="1">
          <mxGeometry x="-725" y="-853" width="70" height="30" as="geometry" />
        </mxCell>
        <mxCell id="pXmirgJ1pPXofqHUb-Qx-206" value="商品企划" style="rounded=1;whiteSpace=wrap;html=1;" vertex="1" parent="1">
          <mxGeometry x="-725" y="-818" width="70" height="30" as="geometry" />
        </mxCell>
        <mxCell id="pXmirgJ1pPXofqHUb-Qx-207" value="仓储物流" style="rounded=1;whiteSpace=wrap;html=1;" vertex="1" parent="1">
          <mxGeometry x="-725" y="-773" width="70" height="30" as="geometry" />
        </mxCell>
        <mxCell id="pXmirgJ1pPXofqHUb-Qx-208" value="" style="rounded=0;whiteSpace=wrap;html=1;fillColor=#e1d5e7;strokeColor=#9673a6;" vertex="1" parent="1">
          <mxGeometry x="-765" y="-659" width="140" height="85" as="geometry" />
        </mxCell>
        <mxCell id="pXmirgJ1pPXofqHUb-Qx-209" value="E3 POS" style="text;html=1;align=center;verticalAlign=middle;resizable=0;points=[];autosize=1;strokeColor=none;fillColor=none;fontStyle=1" vertex="1" parent="1">
          <mxGeometry x="-725" y="-659" width="70" height="30" as="geometry" />
        </mxCell>
        <mxCell id="pXmirgJ1pPXofqHUb-Qx-210" value="进销存" style="rounded=1;whiteSpace=wrap;html=1;" vertex="1" parent="1">
          <mxGeometry x="-727.5" y="-619" width="70" height="30" as="geometry" />
        </mxCell>
        <mxCell id="pXmirgJ1pPXofqHUb-Qx-211" value="……" style="rounded=1;whiteSpace=wrap;html=1;" vertex="1" parent="1">
          <mxGeometry x="-725" y="-728" width="70" height="30" as="geometry" />
        </mxCell>
        <mxCell id="pXmirgJ1pPXofqHUb-Qx-212" value="" style="html=1;shadow=0;dashed=0;align=center;verticalAlign=middle;shape=mxgraph.arrows2.arrow;dy=0.55;dx=34.76;notch=15;gradientColor=#99CCFF;gradientDirection=east;strokeColor=none;flipV=1;" vertex="1" parent="1">
          <mxGeometry x="-623" y="-1043" width="71.43" height="50" as="geometry" />
        </mxCell>
        <mxCell id="pXmirgJ1pPXofqHUb-Qx-213" value="" style="html=1;shadow=0;dashed=0;align=center;verticalAlign=middle;shape=mxgraph.arrows2.arrow;dy=0.55;dx=34.76;notch=15;gradientColor=#99CCFF;gradientDirection=east;strokeColor=none;flipV=1;" vertex="1" parent="1">
          <mxGeometry x="-623" y="-905" width="71.43" height="50" as="geometry" />
        </mxCell>
        <mxCell id="pXmirgJ1pPXofqHUb-Qx-214" value="" style="html=1;shadow=0;dashed=0;align=center;verticalAlign=middle;shape=mxgraph.arrows2.arrow;dy=0.55;dx=34.76;notch=15;gradientColor=#99CCFF;gradientDirection=east;strokeColor=none;flipV=1;" vertex="1" parent="1">
          <mxGeometry x="-623" y="-767" width="71.43" height="50" as="geometry" />
        </mxCell>
        <mxCell id="pXmirgJ1pPXofqHUb-Qx-215" value="" style="html=1;shadow=0;dashed=0;align=center;verticalAlign=middle;shape=mxgraph.arrows2.arrow;dy=0.55;dx=34.76;notch=15;gradientColor=#99CCFF;gradientDirection=east;strokeColor=none;flipV=1;" vertex="1" parent="1">
          <mxGeometry x="-623" y="-629" width="71.43" height="50" as="geometry" />
        </mxCell>
        <mxCell id="pXmirgJ1pPXofqHUb-Qx-216" value="&lt;span style=&quot;font-weight: normal;&quot;&gt;营业额&lt;/span&gt;" style="text;html=1;align=center;verticalAlign=middle;resizable=0;points=[];autosize=1;strokeColor=none;fillColor=none;fontStyle=1;labelBackgroundColor=#FFCCE6;fontColor=#4D4D4D;" vertex="1" parent="1">
          <mxGeometry x="-414.5" y="-1079" width="60" height="30" as="geometry" />
        </mxCell>
        <mxCell id="pXmirgJ1pPXofqHUb-Qx-217" value="&lt;span style=&quot;font-weight: normal;&quot;&gt;指标完成度&lt;/span&gt;" style="text;html=1;align=center;verticalAlign=middle;resizable=0;points=[];autosize=1;strokeColor=none;fillColor=none;fontStyle=1;labelBackgroundColor=#FFCCE6;fontColor=#4D4D4D;" vertex="1" parent="1">
          <mxGeometry x="-372" y="-1079" width="80" height="30" as="geometry" />
        </mxCell>
        <mxCell id="pXmirgJ1pPXofqHUb-Qx-218" value="&lt;span style=&quot;font-weight: normal;&quot;&gt;近N天营业额&lt;/span&gt;" style="text;html=1;align=center;verticalAlign=middle;resizable=0;points=[];autosize=1;strokeColor=none;fillColor=none;fontStyle=1;labelBackgroundColor=#FFCCE6;fontColor=#4D4D4D;" vertex="1" parent="1">
          <mxGeometry x="-403.25" y="-1019" width="90" height="30" as="geometry" />
        </mxCell>
        <mxCell id="pXmirgJ1pPXofqHUb-Qx-219" value="" style="rounded=0;whiteSpace=wrap;html=1;fontColor=#f4f0f0;" vertex="1" parent="1">
          <mxGeometry x="-275.5" y="-1109" width="292.5" height="130" as="geometry" />
        </mxCell>
        <mxCell id="pXmirgJ1pPXofqHUb-Qx-220" value="数字简报" style="text;html=1;align=center;verticalAlign=middle;resizable=0;points=[];autosize=1;strokeColor=none;fillColor=none;" vertex="1" parent="1">
          <mxGeometry x="-275.5" y="-1059" width="70" height="30" as="geometry" />
        </mxCell>
        <mxCell id="pXmirgJ1pPXofqHUb-Qx-221" value="业绩指标&lt;br&gt;&lt;br&gt;&lt;br&gt;&lt;br&gt;&lt;br&gt;&lt;br&gt;&lt;br&gt;" style="rounded=1;whiteSpace=wrap;html=1;fillColor=#fad9d5;strokeColor=#ae4132;" vertex="1" parent="1">
          <mxGeometry x="-212" y="-1103" width="130" height="120" as="geometry" />
        </mxCell>
        <mxCell id="pXmirgJ1pPXofqHUb-Qx-222" value="&lt;span style=&quot;font-weight: 400;&quot;&gt;销售件数&lt;/span&gt;" style="text;html=1;align=center;verticalAlign=middle;resizable=0;points=[];autosize=1;strokeColor=none;fillColor=none;fontStyle=1;labelBackgroundColor=#FFCCE6;fontColor=#4D4D4D;" vertex="1" parent="1">
          <mxGeometry x="-202" y="-1058" width="70" height="30" as="geometry" />
        </mxCell>
        <mxCell id="pXmirgJ1pPXofqHUb-Qx-223" value="&lt;span style=&quot;font-weight: 400;&quot;&gt;销售单数&lt;/span&gt;" style="text;html=1;align=center;verticalAlign=middle;resizable=0;points=[];autosize=1;strokeColor=none;fillColor=none;fontStyle=1;labelBackgroundColor=#FFCCE6;fontColor=#4D4D4D;" vertex="1" parent="1">
          <mxGeometry x="-149" y="-1058" width="70" height="30" as="geometry" />
        </mxCell>
        <mxCell id="pXmirgJ1pPXofqHUb-Qx-224" value="&lt;span style=&quot;font-weight: 400;&quot;&gt;会员占比&lt;/span&gt;" style="text;html=1;align=center;verticalAlign=middle;resizable=0;points=[];autosize=1;strokeColor=none;fillColor=none;fontStyle=1;labelBackgroundColor=#FFCCE6;fontColor=#4D4D4D;" vertex="1" parent="1">
          <mxGeometry x="-202" y="-1042" width="70" height="30" as="geometry" />
        </mxCell>
        <mxCell id="pXmirgJ1pPXofqHUb-Qx-225" value="&lt;span style=&quot;font-weight: 400;&quot;&gt;折扣率&lt;/span&gt;" style="text;html=1;align=center;verticalAlign=middle;resizable=0;points=[];autosize=1;strokeColor=none;fillColor=none;fontStyle=1;labelBackgroundColor=#FFCCE6;fontColor=#4D4D4D;" vertex="1" parent="1">
          <mxGeometry x="-149" y="-1042" width="60" height="30" as="geometry" />
        </mxCell>
        <mxCell id="pXmirgJ1pPXofqHUb-Qx-226" value="&lt;span style=&quot;font-weight: 400;&quot;&gt;客单价&lt;/span&gt;" style="text;html=1;align=center;verticalAlign=middle;resizable=0;points=[];autosize=1;strokeColor=none;fillColor=none;fontStyle=1;labelBackgroundColor=#FFCCE6;fontColor=#4D4D4D;" vertex="1" parent="1">
          <mxGeometry x="-202" y="-1026" width="60" height="30" as="geometry" />
        </mxCell>
        <mxCell id="pXmirgJ1pPXofqHUb-Qx-227" value="&lt;span style=&quot;font-weight: 400;&quot;&gt;件单价&lt;/span&gt;" style="text;html=1;align=center;verticalAlign=middle;resizable=0;points=[];autosize=1;strokeColor=none;fillColor=none;fontStyle=1;labelBackgroundColor=#FFCCE6;fontColor=#4D4D4D;" vertex="1" parent="1">
          <mxGeometry x="-147" y="-1026" width="60" height="30" as="geometry" />
        </mxCell>
        <mxCell id="pXmirgJ1pPXofqHUb-Qx-228" value="&lt;span style=&quot;font-weight: 400;&quot;&gt;连带率&lt;/span&gt;" style="text;html=1;align=center;verticalAlign=middle;resizable=0;points=[];autosize=1;strokeColor=none;fillColor=none;fontStyle=1;labelBackgroundColor=#FFCCE6;fontColor=#4D4D4D;" vertex="1" parent="1">
          <mxGeometry x="-202" y="-1008" width="60" height="30" as="geometry" />
        </mxCell>
        <mxCell id="pXmirgJ1pPXofqHUb-Qx-229" value="&lt;span style=&quot;font-weight: 400;&quot;&gt;转化率&lt;/span&gt;" style="text;html=1;align=center;verticalAlign=middle;resizable=0;points=[];autosize=1;strokeColor=none;fillColor=none;fontStyle=1;labelBackgroundColor=#FFCCE6;fontColor=#4D4D4D;" vertex="1" parent="1">
          <mxGeometry x="-149" y="-1008" width="60" height="30" as="geometry" />
        </mxCell>
        <mxCell id="pXmirgJ1pPXofqHUb-Qx-230" value="&lt;span style=&quot;font-weight: 400;&quot;&gt;营业额&lt;/span&gt;" style="text;html=1;align=center;verticalAlign=middle;resizable=0;points=[];autosize=1;strokeColor=none;fillColor=none;fontStyle=1;labelBackgroundColor=#FFCCE6;fontColor=#4D4D4D;" vertex="1" parent="1">
          <mxGeometry x="-202" y="-1078" width="60" height="30" as="geometry" />
        </mxCell>
        <mxCell id="pXmirgJ1pPXofqHUb-Qx-231" value="&lt;span style=&quot;font-weight: 400;&quot;&gt;同环比&lt;/span&gt;" style="text;html=1;align=center;verticalAlign=middle;resizable=0;points=[];autosize=1;strokeColor=none;fillColor=none;fontStyle=1;labelBackgroundColor=#FFCCE6;fontColor=#4D4D4D;" vertex="1" parent="1">
          <mxGeometry x="-151.5" y="-1078" width="60" height="30" as="geometry" />
        </mxCell>
        <mxCell id="pXmirgJ1pPXofqHUb-Qx-232" value="商品分析&lt;br&gt;&lt;br&gt;&lt;br&gt;&lt;br&gt;&lt;br&gt;&lt;br&gt;" style="rounded=1;whiteSpace=wrap;html=1;fillColor=#fad9d5;strokeColor=#ae4132;" vertex="1" parent="1">
          <mxGeometry x="-79" y="-1103" width="86" height="120" as="geometry" />
        </mxCell>
        <mxCell id="pXmirgJ1pPXofqHUb-Qx-233" value="&lt;span style=&quot;font-weight: normal;&quot;&gt;畅滞销标签&lt;br&gt;&lt;/span&gt;" style="text;html=1;align=center;verticalAlign=middle;resizable=0;points=[];autosize=1;strokeColor=none;fillColor=none;fontStyle=1;labelBackgroundColor=#FFCCE6;fontColor=#4D4D4D;" vertex="1" parent="1">
          <mxGeometry x="-76" y="-1026" width="80" height="30" as="geometry" />
        </mxCell>
        <mxCell id="pXmirgJ1pPXofqHUb-Qx-234" value="&lt;span style=&quot;font-weight: normal;&quot;&gt;库销分析&lt;br&gt;&lt;/span&gt;" style="text;html=1;align=center;verticalAlign=middle;resizable=0;points=[];autosize=1;strokeColor=none;fillColor=none;fontStyle=1;labelBackgroundColor=#FFCCE6;fontColor=#4D4D4D;" vertex="1" parent="1">
          <mxGeometry x="-71" y="-1059" width="70" height="30" as="geometry" />
        </mxCell>
        <mxCell id="pXmirgJ1pPXofqHUb-Qx-235" value="&lt;b&gt;&lt;font style=&quot;font-size: 17px;&quot;&gt;终端门店工具业务架构V1.0&lt;/font&gt;&lt;/b&gt;" style="text;html=1;align=center;verticalAlign=middle;resizable=0;points=[];autosize=1;strokeColor=none;fillColor=none;" vertex="1" parent="1">
          <mxGeometry x="-810" y="-1169" width="230" height="30" as="geometry" />
        </mxCell>
      </root>
    </mxGraphModel>
  </diagram>
</mxfile>
